<?xml version="1.0" encoding="UTF-8" standalone="no"?>
<!-- Created with Inkscape (http://www.inkscape.org/) -->

<svg
   xmlns:dc="http://purl.org/dc/elements/1.1/"
   xmlns:cc="http://creativecommons.org/ns#"
   xmlns:rdf="http://www.w3.org/1999/02/22-rdf-syntax-ns#"
   xmlns:svg="http://www.w3.org/2000/svg"
   xmlns="http://www.w3.org/2000/svg"
   xmlns:sodipodi="http://sodipodi.sourceforge.net/DTD/sodipodi-0.dtd"
   xmlns:inkscape="http://www.inkscape.org/namespaces/inkscape"
   width="107.68483mm"
   height="110.30422mm"
   viewBox="0 0 107.68483 110.30422"
   version="1.1"
   id="svg8"
   inkscape:version="0.92.5 (2060ec1f9f, 2020-04-08)"
   sodipodi:docname="splotch.svg">
  <defs
     id="defs2" />
  <sodipodi:namedview
     id="base"
     pagecolor="#ffffff"
     bordercolor="#666666"
     borderopacity="1.0"
     inkscape:pageopacity="0.0"
     inkscape:pageshadow="2"
     inkscape:zoom="1.3241935"
     inkscape:cx="280.43707"
     inkscape:cy="180.21113"
     inkscape:document-units="mm"
     inkscape:current-layer="layer1"
     showgrid="false"
     inkscape:window-width="1920"
     inkscape:window-height="1009"
     inkscape:window-x="0"
     inkscape:window-y="0"
     inkscape:window-maximized="1" />
  <metadata
     id="metadata5">
    <rdf:RDF>
      <cc:Work
         rdf:about="">
        <dc:format>image/svg+xml</dc:format>
        <dc:type
           rdf:resource="http://purl.org/dc/dcmitype/StillImage" />
        <dc:title></dc:title>
      </cc:Work>
    </rdf:RDF>
  </metadata>
  <g
     inkscape:label="Layer 1"
     inkscape:groupmode="layer"
     id="layer1"
     transform="translate(-0.64031061,-0.4093805)">
    <path
       style="fill:#000000;stroke-width:0.26458332"
       d="m 106.64183,85.132914 c -0.80646,0.519632 -1.88846,0.149851 -2.856,-0.976073 -1.01625,-1.182617 -5.602483,-8.579192 -5.451583,-8.792182 0.0619,-0.08735 0.72337,0.06027 1.46996,0.328041 6.987963,2.506303 9.927783,5.641764 7.884013,8.408685 -0.2768,0.375117 -0.74785,0.839172 -1.04639,1.031529 z M 82.310428,109.22963 c -1.871648,1.31254 -3.48819,1.4779 -5.334527,0.5457 -3.243637,-1.6377 -3.989133,-5.26124 -1.608465,-7.81806 1.641407,-1.76286 3.93834,-1.62593 6.379938,0.38033 3.041096,2.49887 3.246275,5.01035 0.563054,6.89203 z M 101.94722,74.498655 c -0.61835,0.06462 -3.326543,-1.368951 -3.124593,-1.653999 0.0599,-0.0845 0.78098,-0.278717 1.602453,-0.431581 1.07186,-0.199459 1.67001,-0.152936 2.11841,0.16475 0.90391,0.64042 0.54342,1.801709 -0.59627,1.92083 z M 83.359827,92.321016 c -1.4993,0.808906 -3.138541,0.759033 -4.396466,-0.133769 -1.208629,-0.857534 -1.69379,-1.932834 -1.841457,-4.079535 -0.06196,-0.900627 -0.242208,-2.432236 -0.40055,-3.403578 -0.238793,-1.46482 -0.421243,-1.860543 -1.06963,-2.319923 -1.169981,-0.828926 -3.127907,-0.414014 -5.064992,1.073348 -2.567201,1.971191 -2.611217,2.330723 -0.624117,5.097951 1.47637,2.055987 1.321029,3.911179 -0.411887,4.919242 -1.153975,0.671283 -3.59295,-0.008 -4.405583,-1.226994 -0.14078,-0.211144 -0.152254,-1.05832 -0.02553,-1.882575 0.312453,-2.032238 0.151782,-3.013527 -0.578065,-3.530621 -0.777301,-0.550714 -6.06262,-1.825848 -7.051938,-1.701345 -2.383581,0.299964 -5.455101,2.751705 -7.561992,6.036104 l -1.401386,2.1846 0.111885,-1.963288 c 0.139297,-2.444331 -0.140765,-4.442592 -0.801436,-5.71831 -0.678619,-1.310372 -1.018536,-1.507584 -2.239509,-1.299254 -2.051342,0.350001 -3.013929,2.078847 -4.581114,8.227861 -0.965968,3.790079 -2.440178,5.990399 -3.984897,5.947639 -0.675543,-0.0187 -1.702145,-0.96443 -1.947918,-1.79446 -0.692832,-2.339867 -0.0451,-4.157949 3.46916,-9.737375 3.01441,-4.785839 3.385036,-5.820788 2.347696,-6.555738 -0.367009,-0.260025 -1.155632,-0.54762 -1.752488,-0.639115 -0.596857,-0.09149 -1.401401,-0.292804 -1.787879,-0.447352 -0.932657,-0.372976 -2.166224,0.194891 -3.739245,1.721345 -2.095632,2.033592 -2.307173,2.060477 -1.217099,0.154687 2.397633,-4.191807 1.716428,-7.912345 -1.931403,-10.548706 -2.552369,-1.844618 -4.556701,-1.539647 -8.502919,1.293855 -4.114969,2.954664 -7.591135,3.941867 -9.39071,2.666877 -2.346258,-1.662313 -1.022875,-5.393217 2.583249,-7.282753 1.270984,-0.665972 4.358046,-1.231577 7.418533,-1.359213 3.963354,-0.165282 5.084362,-1.774755 3.414271,-4.902006 -1.262196,-2.363484 -1.290326,-2.654554 -0.380836,-3.94123 1.648401,-2.331984 1.849229,-4.719435 0.478714,-5.690439 -0.531089,-0.376274 -1.198319,-0.403897 -3.167425,-0.131128 -2.688313,0.372397 -3.492903,0.276206 -4.670847,-0.558361 -1.800092,-1.275357 -0.980243,-5.070706 1.419321,-6.570481 1.086262,-0.678935 2.326829,-0.696634 4.075642,-0.05816 3.564761,1.301466 4.355264,1.492988 5.415512,1.312091 l 1.11206,-0.189742 -0.259381,-1.034949 c -0.142654,-0.569229 -0.416873,-1.54307 -0.60937,-2.164096 -0.222651,-0.718301 -0.22077,-1.542852 0.0052,-2.266157 0.466149,-1.492358 -0.261996,-2.902662 -2.648063,-5.128927 -1.366848,-1.275307 -1.581329,-1.557333 -0.994839,-1.308126 0.411255,0.174699 1.144823,0.58098 1.630205,0.902774 3.058303,2.027572 6.141384,1.245288 7.986831,-2.02654 1.042869,-1.848924 1.168328,-3.217628 0.421883,-4.602588 -0.520209,-0.96521 -1.178561,-1.597319 -3.987053,-3.828176 -3.171849,-2.519483 -3.415563,-2.767243 -4.267686,-4.338513 -1.346043,-2.482032 -1.033192,-4.40706 0.843441,-5.189864 2.844201,-1.186418 5.938368,1.219435 8.17842,6.359056 1.470585,3.374144 1.686919,3.762365 2.650785,4.756977 1.202219,1.240572 1.700782,1.357234 2.645491,0.61904 0.661893,-0.517201 0.833695,-0.801099 0.938765,-1.551267 0.215363,-1.537629 0.692365,-1.914831 3.154241,-2.494302 4.396996,-1.034966 4.836865,-1.818421 2.840321,-5.058942 -1.517142,-2.462392 -1.744112,-3.159315 -1.456139,-4.471032 0.37268,-1.697581 2.550629,-2.9675835 5.252269,-3.0626955 1.552987,-0.05467 2.889324,0.6215055 3.228039,1.6333695 0.09988,0.298374 -0.115567,2.443913 -0.478773,4.767877 -0.542519,3.471309 -0.580101,4.336856 -0.210592,4.850061 0.534348,0.742141 1.645192,0.812555 3.285156,0.208253 1.03707,-0.382144 1.628997,-1.148103 2.25209,-2.914223 0.166876,-0.473007 0.258232,-0.176334 0.337549,1.096153 0.123183,1.976333 0.250279,2.239905 1.507464,3.126203 1.174766,0.828639 3.473632,1.233226 5.509897,0.970512 1.46398,-0.188873 1.693798,-0.305804 2.309769,-1.175211 0.444089,-0.626806 0.915341,-1.939462 1.343427,-3.742083 1.036776,-4.365711 1.999877,-5.805074 3.801142,-5.680839 1.210631,0.0835 2.90149,1.209476 3.471252,2.311577 0.661382,1.27931 0.350744,2.395279 -1.162173,4.175098 -3.456774,4.066611 -3.505624,4.136859 -3.628003,5.217462 -0.169891,1.500089 0.629809,2.89453 2.365023,4.123921 1.300173,0.921166 1.583522,1.011373 3.30756,1.052485 1.545536,0.03688 2.074376,0.177666 2.932621,0.780703 0.904305,0.635794 1.056096,0.874581 1.113458,1.755543 0.202235,3.105893 0.930046,4.286097 3.663147,5.940022 1.57077,0.95056 2.486152,1.033146 4.455255,0.401964 0.69223,-0.22189 1.68319,-0.527658 2.20212,-0.679492 1.02048,-0.298566 1.06859,-0.34524 -1.50539,1.460174 -1.98291,1.390821 -2.650643,2.619123 -2.360017,4.341252 0.373917,2.215705 2.153467,2.67629 6.466377,1.673632 5.586399,-1.298713 8.047879,-1.621888 9.004219,-1.182179 1.24872,0.574149 1.80335,1.318231 2.04699,2.746044 0.18833,1.103808 0.12092,1.358434 -0.64631,2.441322 -0.78943,1.114236 -0.96754,1.227935 -2.27297,1.450655 -0.90847,0.154996 -2.20415,0.05526 -3.613,-0.278118 -4.004879,-0.947693 -5.535099,-1.148461 -6.678189,-0.876152 -1.59676,0.380375 -2.24875,1.386184 -2.41879,3.731425 -0.0731,1.007792 -0.30451,2.487824 -0.51432,3.288954 -0.41945,1.601659 -0.0593,2.929551 0.99835,3.681001 0.82928,0.588772 1.52108,0.650935 4.1729,0.373106 2.62363,-0.274863 3.365489,-0.219118 4.110789,0.308924 1.24091,0.879173 1.28419,2.145191 0.12911,3.775524 -0.56984,0.804286 -0.85214,0.977182 -1.712639,1.048853 -0.60237,0.05017 -1.61989,-0.177065 -2.44968,-0.547061 -2.55706,-1.140201 -3.23639,-1.335606 -4.59372,-1.321344 -2.142604,0.02251 -2.457227,0.29741 -2.423135,2.117175 0.05285,2.821385 0.328965,3.612283 1.751495,5.017081 l 1.29293,1.276809 -1.67721,-0.458052 c -1.474693,-0.40276 -1.807802,-0.385212 -2.758903,0.145319 -1.019065,0.568437 -6.673949,6.153943 -7.707971,7.613405 -0.546535,0.771403 -0.5902,1.921918 -0.100637,2.651412 0.197887,0.294866 1.049591,1.182976 1.892656,1.973578 3.227655,3.026764 3.889708,4.747488 2.552538,6.634151 -0.42123,0.594334 -1.174276,1.256596 -1.832903,1.611936 z M 73.121119,101.3431 c -0.704817,-0.16036 -0.881608,-0.30607 -1.125949,-0.92799 -0.332829,-0.847171 -0.04367,-1.391441 0.922874,-1.737021 1.315533,-0.47036 2.368699,0.97867 1.550575,2.133401 -0.423803,0.59817 -0.654644,0.68924 -1.3475,0.53161 z M 106.15592,33.03822 c -0.74523,0.512254 -3.13331,1.430614 -5.54837,2.133673 -0.721713,0.210104 -0.761303,0.192104 -0.638583,-0.290287 0.165283,-0.649654 3.545023,-4.889782 4.460023,-5.595418 0.952,-0.73416 1.94554,-0.811147 2.4762,-0.191869 1.10039,1.284145 0.79702,2.881006 -0.74927,3.943901 z m -61.210698,77.42425 c -0.70961,0.43865 -1.712197,0.28805 -2.248439,-0.33774 -0.580644,-0.67761 -0.433899,-3.0605 0.285679,-4.639 0.31495,-0.69089 1.159569,-2.21998 1.87693,-3.39798 l 1.304293,-2.141801 0.08463,1.828811 c 0.04655,1.00585 0.164228,2.48867 0.261514,3.29516 0.299009,2.47877 -0.323874,4.62559 -1.564607,5.39255 z M 57.404549,92.273617 c -0.429195,0.143671 -0.627559,0.05754 -0.940105,-0.408181 -0.217872,-0.324651 -0.407711,-0.796066 -0.421857,-1.047595 -0.03354,-0.596152 0.558108,-2.472707 0.792185,-2.512646 0.257347,-0.04391 1.31613,1.70719 1.481299,2.449877 0.163082,0.733317 -0.156559,1.265822 -0.911522,1.518545 z M 99.160157,25.711044 c -2.92634,2.002037 -6.3815,2.213242 -9.222857,0.563761 -2.588768,-1.502841 -2.38991,-2.697981 0.989037,-5.944127 2.47257,-2.375387 3.01384,-3.104731 4.72851,-6.371452 1.378,-2.625319 2.39245,-3.77073 3.35231,-3.785093 0.78262,-0.01172 2.658423,1.362635 3.519493,2.5786 0.92691,1.308978 1.46764,4.402539 1.09161,6.245146 -0.42384,2.076869 -2.70726,5.515329 -4.458083,6.71314 z M 33.280634,109.42941 c -1.308342,0.48888 -2.23264,0.35758 -3.434585,-0.48789 -0.778513,-0.54765 -0.977269,-0.87254 -1.14886,-1.87824 -0.463194,-2.71476 1.393056,-4.89793 3.805351,-4.47554 2.670313,0.46756 3.708997,2.85637 2.359874,5.42733 -0.436344,0.83152 -0.733793,1.09748 -1.58178,1.41434 z m -11.894549,-6.18839 c -0.952818,0.45826 -1.938226,0.2593 -3.248185,-0.65582 -1.556595,-1.08741 -1.961848,-2.08437 -1.643109,-4.042141 0.444229,-2.72856 3.0009,-5.712698 8.226921,-9.602423 0.982066,-0.730952 1.907944,-1.356216 2.057506,-1.389477 0.149561,-0.03326 -0.08285,0.896456 -0.51646,2.066036 -0.433613,1.169581 -1.131537,3.732711 -1.550941,5.695844 -1.126443,5.272631 -1.966018,7.274041 -3.325732,7.927981 z M 69.669139,16.538417 c -0.97489,0.755649 -2.234563,1.305657 -2.821432,1.231902 -1.172885,-0.147386 -1.943888,-0.981593 -2.129959,-2.304582 -0.442695,-3.147578 2.28563,-5.033475 4.752956,-3.285385 0.795537,0.563634 1.076218,0.944305 1.227525,1.664855 0.107884,0.513784 0.09525,1.076566 -0.02807,1.250635 -0.123327,0.174069 -0.275741,0.474315 -0.338715,0.667221 -0.06297,0.1929 -0.361008,0.541801 -0.662305,0.775352 z M 61.423192,9.3188205 C 61.01301,8.0496835 60.297714,7.0886015 58.705412,5.6671765 55.845471,3.1141323 55.7046,0.9064343 58.372594,0.4512188 c 2.030239,-0.3463985 3.707104,1.4868422 4.057652,4.4360645 0.164947,1.3877202 -0.04289,3.5804532 -0.460624,4.8596142 L 61.764521,10.374942 Z M 6.833226,50.339861 c -3.125639,1.34656 -7.0237739,-2.062181 -6.037008,-5.279102 0.532041,-1.734485 3.115301,-2.63491 5.296426,-1.846136 3.219216,1.164192 3.706012,5.847693 0.740582,7.125238 z M 18.779984,30.24945 C 18.379783,30.08013 16.767956,29.882197 15.198175,29.80956 12.06594,29.664624 10.984291,29.307957 9.973637,28.086804 8.942643,26.841068 8.890356,25.634177 9.811082,24.334627 c 0.666885,-0.941269 0.909119,-1.096097 1.88845,-1.207037 1.950437,-0.220969 2.945724,0.49235 5.662276,4.058145 1.289545,1.692643 2.29989,3.143698 2.245226,3.224545 -0.05471,0.08085 -0.426847,0.0085 -0.827061,-0.160814 z"
       id="path3724"
       inkscape:connector-curvature="0" />
  </g>
</svg>
